<svg width="91" height="76" viewBox="0 0 91 76" fill="none" xmlns="http://www.w3.org/2000/svg">
<path d="M89.1406 3.60156L75.1986 71.3684C75.1986 71.3684 73.2478 76.0669 67.889 73.8136L35.721 50.0334L35.5718 49.9633C39.917 46.2016 73.6112 16.9927 75.0838 15.6687C77.3635 13.6181 75.9483 12.3974 73.3014 13.9464L23.5307 44.4203L4.32935 38.1912C4.32935 38.1912 1.30761 37.1549 1.01691 34.9016C0.722388 32.6445 4.42879 31.4238 4.42879 31.4238L82.707 1.81657C82.707 1.81657 89.1406 -0.908855 89.1406 3.60156Z" fill="#FFE100"/>
<path d="M73.3011 13.9466C75.9478 12.3977 77.3635 13.6179 75.0843 15.6683L73.1419 17.3675C65.6472 23.8962 39.3737 46.6716 35.5716 49.9632L35.721 50.0335L67.8889 73.8138C73.2258 76.0579 75.1826 71.4066 75.1985 71.3685C76.1221 71.7519 76.1216 71.7527 76.1214 71.7532L76.1204 71.7571C76.1196 71.7589 76.1184 71.7608 76.1175 71.763C76.1154 71.7679 76.1127 71.7745 76.1096 71.7816C76.1033 71.7962 76.0939 71.8161 76.0833 71.8392C76.0621 71.8852 76.0322 71.9474 75.9934 72.0228C75.9157 72.1739 75.8012 72.3802 75.6458 72.6165C75.337 73.086 74.8543 73.6956 74.1643 74.2279C72.7238 75.3391 70.515 76.0029 67.5013 74.7357L67.3909 74.6888L67.2942 74.6175L35.2063 50.8958L35.1468 50.8685L33.7542 50.2142L34.9173 49.2073C39.2698 45.4392 72.9504 16.2421 74.4153 14.9251C74.6909 14.6772 74.8781 14.464 75.0042 14.2943C74.7053 14.3648 74.3027 14.5194 73.8147 14.804L23.6604 45.513L23.222 45.3714L4.02078 39.1419L4.01297 39.14L4.00516 39.137L4.32937 38.1907L23.5305 44.4202L73.3011 13.9466ZM85.8509 0.0198423C86.7339 -0.0446968 87.7962 0.025611 88.6673 0.572577C89.6201 1.17093 90.1408 2.20468 90.1409 3.6009V3.70344L76.178 71.5696L76.1585 71.6634L76.1223 71.7513L75.1985 71.3685L89.1409 3.6009C89.1404 -0.898031 82.738 1.80374 82.7073 1.81672L4.42898 31.4232C4.42898 31.4232 0.722351 32.6446 1.01687 34.9017C1.30685 37.1475 4.30983 38.184 4.32937 38.1907L4.00516 39.137L4.0032 39.1361C4.00208 39.1357 3.99979 39.1346 3.99832 39.1341C3.99526 39.133 3.99112 39.1318 3.9866 39.1302C3.97763 39.127 3.96586 39.1228 3.95144 39.1175C3.92231 39.1068 3.88159 39.092 3.8323 39.0726C3.73392 39.0339 3.59749 38.9775 3.43484 38.9027C3.11123 38.7538 2.67226 38.5273 2.21805 38.2171C1.34589 37.6215 0.225225 36.5834 0.024687 35.0296L0.0256635 35.0286C-0.202011 33.2749 1.13507 32.0935 2.0618 31.4818C2.56927 31.1468 3.07824 30.897 3.45437 30.7327C3.64402 30.6499 3.80439 30.5873 3.91922 30.5443C3.9767 30.5227 4.02352 30.5062 4.05691 30.4945C4.07347 30.4886 4.08702 30.4832 4.09695 30.4798C4.10164 30.4782 4.10557 30.4769 4.10867 30.4759L82.3372 0.88703C82.3393 0.886146 82.3416 0.885109 82.344 0.8841C82.3592 0.877833 82.3807 0.869425 82.4075 0.85871C82.4611 0.837243 82.5376 0.807476 82.6331 0.771795C82.8243 0.70037 83.0954 0.604535 83.4192 0.505194C84.0587 0.309037 84.9424 0.0862486 85.8509 0.0198423Z" fill="black"/>
</svg>
